<?xml version="1.0" standalone="no"?>
<!DOCTYPE svg PUBLIC "-//W3C//DTD SVG 20010904//EN"
 "http://www.w3.org/TR/2001/REC-SVG-20010904/DTD/svg10.dtd">
<svg version="1.0" xmlns="http://www.w3.org/2000/svg"
 width="407.000000pt" height="610.000000pt" viewBox="0 0 407.000000 610.000000"
 preserveAspectRatio="xMidYMid meet">
<metadata>
Created by potrace 1.15, written by Peter Selinger 2001-2017
</metadata>
<g transform="translate(0.000000,610.000000) scale(0.100000,-0.100000)"
fill="#000000" stroke="none">
<path d="M0 5865 c0 -129 2 -235 4 -235 11 0 57 53 81 96 16 27 36 53 44 58
30 18 101 96 101 111 0 8 9 19 20 25 20 11 55 60 93 130 11 19 25 38 31 42 6
4 -76 8 -181 8 l-193 0 0 -235z"/>
<path d="M1637 6083 c-4 -10 -18 -38 -32 -62 -17 -29 -27 -60 -28 -88 0 -32
-5 -44 -19 -49 -10 -3 -18 -10 -18 -15 0 -5 -4 -9 -9 -9 -5 0 -45 -21 -88 -47
-43 -25 -118 -67 -168 -93 -111 -57 -396 -236 -403 -252 -2 -4 -7 -8 -12 -8
-5 0 -21 -5 -37 -12 -15 -6 -31 -11 -35 -10 -3 1 -12 -6 -19 -14 -10 -13 -10
-17 1 -24 10 -6 7 -9 -10 -12 -16 -2 -27 -12 -31 -28 -4 -14 -7 -19 -8 -12 -1
6 -6 12 -12 12 -6 0 -9 -7 -5 -15 4 -12 -3 -15 -29 -15 -18 0 -40 -6 -47 -12
-27 -25 -59 -39 -106 -44 -26 -3 -68 -14 -94 -25 -25 -10 -70 -21 -100 -24
-79 -8 -92 -10 -108 -20 -8 -5 -40 -10 -71 -11 -58 -1 -129 -20 -129 -34 0
-11 28 -20 44 -14 8 3 17 1 20 -4 9 -15 -23 -23 -44 -12 -37 20 -40 12 -40
-84 0 -74 3 -95 15 -100 8 -3 15 -10 15 -17 0 -6 -7 -8 -16 -5 -14 5 -15 -18
-13 -222 1 -150 6 -229 13 -234 8 -5 7 -8 -1 -8 -10 0 -13 -127 -13 -600 l0
-600 55 65 c30 35 55 68 55 73 0 17 28 34 35 22 3 -5 1 -10 -5 -10 -18 0 -33
-52 -18 -62 10 -6 10 -8 1 -8 -7 0 -13 -8 -13 -17 0 -15 -2 -16 -10 -3 -8 13
-10 12 -10 -2 0 -10 5 -18 11 -18 5 0 8 -4 4 -9 -3 -5 3 -11 13 -13 16 -3 16
-6 5 -28 l-13 -25 -6 22 c-5 20 -8 20 -21 8 -8 -8 -11 -20 -7 -26 4 -7 3 -9
-2 -6 -17 10 -36 -10 -38 -40 -2 -16 -6 -35 -9 -40 -4 -6 -5 -18 -2 -25 3 -8
-1 -21 -10 -28 -17 -14 -21 -65 -5 -75 6 -3 10 -11 10 -16 0 -6 -5 -7 -10 -4
-21 13 -9 -25 13 -40 17 -12 19 -17 8 -24 -9 -6 -12 -22 -8 -50 2 -23 0 -44
-4 -47 -13 -7 -1 -24 16 -24 9 0 12 6 9 15 -4 8 -1 15 6 15 6 0 8 -4 5 -10 -3
-5 -1 -10 4 -10 12 0 14 11 12 46 -1 11 5 27 13 34 11 8 16 9 16 1 0 -6 -4
-11 -10 -11 -5 0 -10 -10 -9 -22 0 -22 1 -22 10 -3 8 17 9 16 6 -7 -3 -16 -1
-28 3 -28 12 0 21 -63 11 -73 -5 -5 -14 4 -22 22 -13 28 -39 43 -39 23 0 -5
-11 -15 -25 -22 -26 -14 -34 -40 -12 -40 9 0 9 -2 -1 -9 -10 -6 -13 -33 -10
-107 3 -93 4 -99 24 -97 18 2 20 -3 20 -38 -1 -29 -4 -36 -11 -26 -5 8 -16 12
-23 9 -10 -3 -12 -160 -12 -776 1 -755 1 -772 20 -784 11 -7 20 -20 20 -29 0
-13 -3 -14 -12 -5 -7 7 -16 12 -20 12 -4 0 -8 -200 -8 -445 l0 -445 445 0
c402 0 480 4 433 23 -9 4 -10 6 -1 6 6 1 18 -6 27 -14 19 -20 192 -22 199 -2
4 9 6 9 6 0 1 -18 222 -18 239 -1 9 9 12 9 12 0 0 -18 2306 -17 2313 1 4 9 6
9 6 0 1 -10 47 -13 196 -13 l195 0 0 420 c0 369 -2 419 -15 414 -8 -4 -15 -1
-15 5 0 6 7 11 15 11 13 0 15 97 15 803 l0 802 -35 1 c-19 0 -35 -3 -35 -8 0
-5 -4 -6 -10 -3 -12 8 -12 16 -1 34 8 12 12 12 26 -3 25 -25 49 -16 53 19 3
28 1 30 -34 30 -52 0 -55 21 -5 30 l41 7 0 48 0 49 -35 -4 c-20 -3 -35 0 -35
5 0 6 9 10 19 10 33 0 51 11 51 31 0 10 -4 19 -10 19 -5 0 -10 -4 -10 -10 0
-5 -11 -10 -25 -10 -25 0 -37 19 -12 21 6 0 2 4 -10 9 -20 8 -21 13 -13 35 14
37 12 55 -5 55 -10 0 -15 -8 -14 -22 4 -47 -1 -88 -12 -88 -12 0 -2 109 12
125 5 5 29 9 54 9 45 0 45 1 45 36 l0 35 -20 -30 c-20 -30 -25 -21 -14 23 4
14 12 21 20 18 8 -3 14 -1 14 4 0 6 -7 10 -15 10 -8 0 -15 4 -15 10 0 5 7 7
15 4 12 -5 14 26 15 220 0 220 -1 226 -19 217 -14 -8 -22 -7 -30 3 -14 17 -2
29 16 15 10 -9 13 -7 13 9 0 12 4 23 9 27 6 3 10 96 10 213 l0 207 -45 38
c-25 20 -49 37 -54 37 -5 0 -53 -91 -107 -202 -76 -158 -99 -196 -101 -175 -2
15 -8 25 -13 22 -5 -4 -9 -1 -9 4 0 6 4 11 9 11 11 0 13 88 1 95 -4 3 -11 23
-15 45 -4 22 -12 43 -17 46 -7 5 -8 2 -3 -5 4 -8 -7 -28 -31 -54 -22 -23 -32
-37 -24 -31 29 19 70 34 70 24 0 -5 -12 -16 -27 -24 -21 -11 -24 -16 -13 -19
8 -3 22 -8 30 -10 8 -3 -6 -6 -31 -6 -45 -1 -81 -22 -60 -35 5 -4 17 -41 27
-84 21 -95 34 -122 71 -144 52 -30 58 -5 9 40 -28 26 -49 56 -55 79 -18 63
-12 82 8 26 10 -31 36 -72 63 -101 36 -38 46 -57 51 -97 5 -33 3 -55 -6 -68
-11 -17 -11 -38 0 -121 7 -56 15 -134 19 -173 6 -68 5 -73 -14 -73 -11 0 -41
-10 -67 -21 -39 -17 -61 -20 -109 -16 -40 3 -53 2 -38 -4 31 -12 28 -25 -8
-32 -35 -7 -63 1 -54 15 4 5 -8 23 -25 38 -17 16 -29 35 -26 42 2 7 6 33 9 58
2 25 8 54 12 65 7 18 6 18 -21 -3 -33 -26 -46 -21 -19 9 18 20 18 20 -9 14
-16 -4 -27 -3 -27 3 0 16 61 26 70 12 10 -16 39 216 33 263 -3 22 -12 41 -21
44 -21 9 -62 -42 -62 -77 0 -39 -25 -62 -64 -58 -27 3 -32 7 -36 38 -5 33 -8
35 -50 42 -89 13 -100 11 -107 -22 -7 -39 -10 -40 -80 -41 -32 -1 -61 -6 -65
-12 -4 -7 -11 -7 -20 1 -8 6 -25 8 -38 5 -15 -4 -21 -2 -17 5 7 11 -11 11 -28
0 -10 -6 -51 -11 -70 -9 -5 1 -3 6 5 11 11 7 7 10 -18 10 -18 0 -42 5 -53 10
-15 8 -19 8 -17 -2 2 -9 -11 -14 -39 -16 -35 -3 -42 0 -37 12 3 8 13 17 22 19
15 4 15 5 0 6 -21 1 -21 3 -7 52 10 32 9 42 -5 64 -9 14 -22 25 -28 25 -6 0
-4 -8 6 -19 16 -17 16 -18 -6 -14 -28 5 -78 -30 -78 -55 0 -15 -2 -15 -10 -2
-16 24 -11 56 11 76 l20 18 -40 36 c-39 34 -39 36 -32 83 8 47 7 49 -25 74
-19 14 -34 31 -34 37 0 6 -13 23 -30 38 -16 14 -30 36 -30 48 0 12 -5 30 -10
40 -8 14 -4 38 14 92 14 41 28 104 32 141 4 37 9 67 12 67 2 0 30 -15 61 -34
137 -83 205 -108 443 -167 83 -21 138 -29 181 -27 60 3 62 4 71 36 5 17 14 32
21 32 18 0 41 31 55 73 14 44 24 45 111 11 l47 -18 38 27 c22 15 52 37 68 50
l30 24 -41 94 c-22 52 -48 116 -58 143 -27 74 -80 91 -198 60 -79 -20 -107
-13 -107 27 0 41 13 63 84 140 61 67 117 150 138 207 16 43 -2 62 -57 62 -33
0 -56 9 -96 36 -116 78 -156 83 -253 32 -75 -40 -132 -96 -191 -187 -70 -109
-125 -145 -153 -101 -7 11 -18 20 -26 20 -8 0 -16 15 -20 38 -3 20 -12 78 -20
127 -25 148 -37 254 -30 279 5 23 5 23 -40 13 -40 -9 -55 -27 -23 -27 9 0 13
-46 14 -167 1 -92 -1 -172 -5 -177 -7 -12 -8 -18 -10 -58 -2 -21 -7 -28 -22
-28 -17 0 -20 7 -20 39 0 22 -5 43 -10 46 -10 6 -5 300 6 338 4 12 0 17 -13
17 -35 1 18 30 54 30 44 0 54 27 49 128 l-4 77 119 226 c65 124 119 231 119
238 0 14 -48 34 -61 25 -5 -3 -15 -18 -22 -33 -7 -15 -59 -116 -116 -225 -74
-142 -106 -195 -114 -187 -25 25 -37 11 -37 -41 0 -77 -17 -96 -26 -30 -4 36
-11 52 -21 52 -10 0 -13 -6 -8 -17 12 -32 19 -137 8 -130 -6 4 -13 20 -17 37
-3 18 -10 29 -16 25 -13 -8 -13 -51 2 -90 10 -31 6 -41 -77 -200 -97 -182 -99
-185 -192 -191 l-52 -3 -15 54 c-24 81 -67 124 -153 155 -26 9 -27 9 -9 -5 11
-8 24 -15 30 -15 21 0 -13 -23 -36 -24 -18 -1 -24 -8 -29 -41 -4 -22 -4 -45
-2 -52 4 -9 -1 -11 -13 -7 -15 4 -14 1 6 -18 14 -13 32 -32 40 -42 14 -18 14
-19 -7 -7 -19 10 -22 9 -17 -4 4 -8 12 -15 20 -15 8 0 14 -4 14 -10 0 -6 -9
-6 -26 0 -14 6 -35 10 -47 10 -18 -1 -17 -3 9 -14 23 -10 35 -27 53 -72 12
-33 25 -80 28 -106 5 -44 3 -50 -26 -77 -28 -26 -29 -29 -9 -24 13 2 1 -9 -27
-26 -125 -76 -175 -161 -139 -237 9 -18 19 -34 23 -34 4 0 15 15 25 33 43 74
158 131 193 96 8 -8 6 -16 -9 -31 -15 -15 -17 -23 -8 -33 12 -14 -16 -79 -68
-157 l-25 -39 20 -27 c11 -15 23 -39 27 -52 6 -21 4 -20 -13 7 -21 33 -84 59
-119 50 -13 -4 -12 -5 4 -6 21 -1 69 -39 60 -48 -2 -3 -28 1 -58 7 -29 7 -64
10 -78 7 -21 -3 -19 -5 8 -6 38 -1 67 -14 100 -44 28 -26 29 -41 1 -27 -11 7
-21 10 -22 8 -38 -75 -72 -135 -83 -144 -12 -9 -10 -15 9 -35 12 -13 33 -32
47 -41 14 -9 20 -17 14 -17 -6 -1 -28 10 -48 24 -31 21 -41 23 -58 14 -41 -22
-56 -45 -153 -236 -53 -106 -101 -193 -105 -193 -24 0 -136 109 -175 170 -34
53 -50 70 -74 75 -17 4 -38 14 -47 22 -14 14 -12 19 21 45 47 39 66 86 71 176
5 87 9 121 17 142 11 28 27 121 27 153 0 82 -74 271 -122 313 l-22 19 17 -28
c10 -15 15 -33 11 -39 -4 -7 -3 -8 4 -4 8 5 10 2 6 -9 -4 -9 -7 -15 -8 -13 -1
2 -8 12 -16 22 -13 18 -13 19 0 11 11 -6 10 -3 -2 11 -60 66 -78 93 -67 100 8
5 10 3 4 -7 -5 -8 -4 -11 0 -6 5 4 20 -3 34 -15 14 -13 6 0 -18 29 -72 89
-139 133 -201 133 -42 0 -45 16 -10 42 27 20 31 27 25 55 -7 37 -6 37 28 22
19 -8 30 -6 60 11 20 12 37 26 37 32 0 5 -4 7 -9 4 -5 -4 -11 -1 -13 5 -3 9
-10 8 -25 -1 -18 -11 -23 -11 -36 2 -14 14 -13 17 7 28 18 9 29 9 44 1 28 -15
32 -14 32 9 0 14 5 18 17 13 11 -4 12 -8 5 -11 -14 -4 -16 -52 -2 -52 6 0 10
6 10 14 0 21 28 39 47 31 12 -5 14 -9 6 -12 -15 -5 -17 -23 -4 -23 5 0 13 10
17 22 4 15 1 26 -12 37 -18 15 -25 36 -25 72 0 9 -17 25 -37 36 -39 20 -47 41
-22 60 24 19 -16 29 -57 14 -19 -7 -37 -10 -40 -7 -4 3 0 6 8 6 8 1 3 7 -11
15 -25 14 -25 14 -2 15 12 0 22 6 22 14 0 7 10 16 23 20 18 5 20 8 7 16 -21
14 -30 12 -30 -5 0 -8 -6 -15 -12 -16 -7 0 -21 -2 -30 -4 -10 -2 -18 1 -18 6
0 5 7 9 15 9 19 0 19 14 1 29 -10 9 -16 9 -21 1 -4 -6 -13 -9 -20 -6 -7 2 -22
-2 -34 -10 -11 -8 -21 -12 -21 -8 0 5 -5 3 -11 -3 -8 -8 -21 -8 -47 0 -27 9
-36 9 -39 0 -3 -7 -11 -9 -19 -6 -8 3 -22 2 -31 -2 -10 -5 -24 -9 -31 -11 -20
-4 -25 -11 -17 -24 4 -7 18 -9 31 -6 14 4 24 2 24 -4 0 -19 -25 -21 -62 -6
-19 8 -38 12 -42 9 -3 -4 -6 -1 -6 5 0 7 5 12 11 12 5 0 8 4 5 9 -4 5 -17 4
-32 -2 -18 -9 -24 -18 -21 -34 3 -18 1 -20 -15 -10 -10 7 -18 15 -18 20 0 7
52 42 75 51 6 2 6 7 2 12 -4 4 -17 3 -28 -5 -19 -11 -20 -10 -14 10 6 16 4 20
-6 13 -12 -6 -12 -5 -1 8 10 13 10 17 -4 22 -9 3 -20 4 -25 1 -5 -4 -5 3 0 17
5 13 14 22 20 21 6 -2 12 3 12 10 1 6 2 19 3 27 1 18 114 36 130 20 13 -13 36
-13 36 -1 0 5 -8 11 -17 13 -14 3 -10 8 15 22 33 17 34 17 39 -2 5 -21 34 -23
41 -4 2 7 15 12 28 12 25 0 32 14 12 24 -14 7 19 0 51 -10 12 -4 26 2 40 17
12 13 36 28 54 34 22 7 31 16 29 28 -2 10 3 17 13 17 8 0 15 -5 15 -11 0 -5 4
-8 9 -4 6 3 14 -2 19 -11 11 -21 59 -25 66 -7 5 13 46 19 46 7 0 -4 -8 -13
-17 -20 -12 -9 -14 -13 -5 -14 22 0 53 20 47 31 -4 5 15 18 41 29 26 12 52 27
58 35 6 7 20 15 30 17 26 4 32 25 9 31 -10 3 1 3 25 0 40 -5 42 -4 42 20 0 32
40 46 47 16 4 -13 14 -19 34 -19 25 0 29 4 29 28 0 21 7 30 29 38 24 10 31 8
42 -7 8 -11 17 -15 24 -9 6 5 42 18 80 28 39 11 87 27 108 36 23 10 37 12 37
6 0 -7 13 -4 33 6 53 28 61 31 94 38 22 5 30 12 26 22 -3 8 1 14 10 14 8 0 17
-5 19 -10 2 -6 14 -3 28 7 14 10 34 19 45 20 31 2 65 14 65 24 0 4 8 7 18 7 9
-1 33 5 52 14 19 9 56 25 81 36 25 11 51 27 58 36 8 9 18 16 23 16 5 0 24 11
42 25 37 28 51 32 43 11 -4 -11 -1 -13 10 -9 11 4 14 2 11 -8 -3 -8 -12 -13
-19 -11 -10 3 -11 0 -3 -8 14 -15 160 35 183 62 16 19 61 25 61 8 0 -5 16 -10
35 -10 34 0 141 57 190 100 11 10 61 38 110 64 l90 46 -711 0 c-669 0 -712 -1
-717 -17z m787 -1165 c-4 -88 -13 -166 -20 -183 -12 -27 -19 -21 -15 13 1 6
-7 12 -17 12 -11 0 -23 7 -26 16 -4 12 -14 14 -36 9 -16 -4 -30 -3 -30 1 0 9
143 284 148 284 2 0 0 -69 -4 -152z m-2069 -88 c11 -5 14 -9 8 -9 -18 -1 6
-51 24 -51 7 0 13 -5 13 -12 0 -6 9 -3 20 7 17 16 20 16 20 2 0 -8 -13 -25
-30 -37 -20 -14 -27 -26 -23 -38 3 -9 3 -14 -2 -10 -14 13 -45 -12 -45 -35 0
-17 2 -19 9 -7 6 8 7 18 5 22 -3 4 8 8 25 8 23 0 29 -4 24 -16 -3 -8 -12 -13
-19 -10 -9 3 -14 -2 -14 -14 0 -11 5 -20 10 -20 6 0 10 5 10 10 0 20 26 9 27
-11 2 -16 -3 -20 -17 -16 -14 3 -20 -1 -22 -17 -2 -13 -9 -19 -18 -17 -8 2
-23 4 -32 5 -10 0 -20 6 -23 14 -2 7 1 12 8 11 51 -6 62 11 17 28 -33 13 -37
24 -15 47 8 8 15 20 15 26 0 6 5 8 11 4 8 -4 8 0 0 15 -7 11 -16 21 -21 21 -6
0 -10 7 -10 15 0 8 5 15 10 15 6 0 10 -4 10 -10 0 -12 27 -13 34 -1 9 14 -4
41 -19 41 -7 0 -15 6 -18 13 -3 8 -10 6 -21 -8 -13 -17 -15 -17 -16 -4 0 9 7
20 16 23 8 3 12 10 9 16 -7 12 12 12 40 0z m383 -184 c45 -46 82 -88 82 -93 0
-5 19 -14 43 -20 65 -18 172 -121 219 -211 22 -43 33 -74 27 -78 -6 -3 1 -16
15 -29 30 -28 43 -99 27 -148 -7 -19 -27 -50 -45 -68 -21 -21 -39 -52 -45 -79
-16 -61 -32 -100 -41 -100 -5 0 -8 79 -8 175 0 198 -3 220 -40 292 -25 50 -59
75 -48 36 2 -10 6 -101 8 -203 l3 -185 -95 -6 c-61 -3 -107 -12 -128 -23 -19
-10 -35 -16 -36 -14 -2 2 -8 36 -14 77 -8 57 -18 85 -46 126 -36 52 -45 71
-26 60 15 -9 12 2 -6 30 -18 28 -34 24 -35 -8 0 -18 -3 -15 -17 13 -9 19 -20
36 -24 38 -3 2 0 15 7 28 9 18 10 35 5 55 -7 22 -5 31 5 35 21 8 27 33 6 27
-12 -3 -17 2 -17 16 0 23 7 26 23 10 8 -8 17 -7 32 3 25 15 26 26 7 70 -21 49
-28 70 -32 98 -2 14 -6 36 -9 48 -10 41 18 20 45 -34 29 -58 60 -104 69 -104
3 0 18 12 34 25 l27 24 -21 40 c-18 35 -49 131 -49 154 0 18 22 1 98 -77z
m1186 -847 l39 -91 -31 -25 c-18 -13 -32 -29 -32 -35 0 -6 -16 -25 -35 -44
-19 -18 -35 -40 -35 -48 0 -9 -6 -16 -14 -16 -11 0 -29 51 -53 156 -6 26 95
195 117 194 3 0 23 -41 44 -91z m-1020 65 l46 -7 -1 -61 c-1 -69 -10 -111 -24
-111 -6 0 -24 -15 -42 -33 -18 -18 -42 -32 -55 -32 -34 0 -100 25 -108 41 -4
8 -11 49 -15 91 l-7 77 39 20 c40 21 89 25 167 15z m851 -269 c10 -41 21 -77
25 -80 4 -3 38 11 75 31 38 19 75 32 84 29 31 -12 144 -17 137 -6 -4 5 -22 13
-41 17 -18 3 -42 15 -52 26 -18 20 -17 20 97 15 63 -3 134 -9 158 -14 l42 -8
-22 -32 c-16 -23 -31 -33 -50 -33 -29 0 -38 -14 -15 -24 8 -3 6 -10 -8 -21
-24 -20 -89 -14 -177 16 -78 26 -121 24 -166 -6 -20 -14 -66 -34 -102 -46 -69
-22 -109 -54 -90 -73 7 -7 21 0 44 23 29 28 134 77 144 66 2 -1 2 -31 0 -65
l-3 -62 -35 31 c-39 34 -50 38 -50 16 0 -8 -4 -15 -8 -15 -8 0 -32 -43 -32
-58 0 -4 11 7 25 23 21 25 26 28 35 15 26 -39 7 -57 -52 -51 -10 1 -18 -4 -18
-12 0 -8 -17 -22 -37 -30 -68 -27 -206 -66 -214 -61 -11 6 51 124 71 136 8 4
37 18 64 29 33 14 45 24 38 31 -7 7 -19 4 -38 -11 -25 -20 -54 -28 -54 -16 0
7 130 248 139 258 4 4 8 2 8 -5 0 -19 54 -138 63 -138 16 0 19 14 7 29 -24 29
-60 119 -54 135 4 9 15 16 26 16 16 0 22 -13 36 -75z m-156 9 c-14 -38 -99
-204 -189 -369 -42 -77 -103 -189 -134 -250 -100 -189 -199 -365 -204 -360 -6
6 93 200 396 770 90 170 128 235 137 235 3 0 0 -12 -6 -26z m-524 -84 l47 -20
-56 -62 c-31 -35 -56 -71 -56 -81 0 -23 59 -97 76 -97 7 0 29 14 49 31 41 36
50 17 10 -21 -32 -30 -32 -37 7 -77 35 -36 55 -42 64 -18 12 30 22 14 34 -53
l13 -68 -67 -132 c-51 -100 -74 -135 -96 -147 -17 -8 -43 -22 -60 -31 -31 -16
-40 -26 -17 -20 6 3 28 7 47 10 30 6 33 5 20 -7 -16 -15 -107 -51 -152 -61
-23 -5 -31 0 -57 36 -35 50 -114 138 -124 138 -4 0 -7 -15 -7 -34 0 -68 -34
-112 -66 -85 -25 20 -16 -10 10 -36 28 -28 24 -35 -21 -35 -39 0 -40 -3 -13
-37 26 -33 25 -51 -4 -86 l-23 -29 -22 30 c-11 17 -21 36 -21 44 0 11 -2 11
-9 -1 -16 -25 -20 5 -16 119 3 63 5 120 5 126 0 7 18 39 41 73 23 34 39 68 36
75 -3 7 -33 52 -67 100 -40 57 -67 86 -80 86 -12 0 -39 -27 -75 -75 -80 -108
-94 -140 -93 -205 2 -78 -6 -95 -58 -117 -51 -22 -45 -36 19 -46 46 -7 67 -22
67 -49 0 -17 -5 -19 -40 -13 -51 9 -67 -1 -40 -25 26 -23 26 -25 -15 -90 -19
-30 -35 -63 -36 -75 0 -14 -2 -15 -6 -5 -3 8 -14 33 -26 55 -14 28 -21 60 -21
110 -1 49 -9 87 -25 127 -23 53 -23 59 -11 116 8 34 17 59 21 56 4 -2 15 9 24
24 10 15 12 22 5 15 -16 -15 -40 -6 -40 16 0 14 2 14 11 1 9 -13 10 -13 6 0
-2 8 3 21 10 29 11 10 12 16 3 21 -9 6 -6 14 9 29 27 27 44 27 36 1 -4 -12 -2
-20 5 -20 6 0 9 -4 5 -10 -3 -5 -11 -8 -18 -6 -7 1 -9 1 -4 -1 13 -8 7 -25 -7
-20 -10 4 -13 1 -9 -8 3 -8 9 -12 14 -9 13 8 89 121 89 132 0 6 7 12 15 16 8
3 15 10 15 15 0 6 -6 8 -13 5 -8 -3 -19 1 -26 9 -9 11 -8 17 4 27 8 7 15 19
15 26 0 8 4 14 10 14 5 0 6 -8 3 -17 -6 -16 -5 -16 10 -4 10 8 21 10 25 6 4
-4 1 -10 -5 -12 -7 -3 -13 -12 -13 -21 0 -25 57 48 64 81 3 16 19 42 35 58 27
27 35 29 99 29 l70 0 33 -42 c18 -24 58 -68 89 -98 45 -45 55 -52 56 -35 2 25
39 122 54 140 6 8 21 15 33 17 12 2 28 16 36 33 41 81 106 185 117 185 1 0 23
-9 49 -20z m1000 -59 c39 -11 60 -20 48 -20 -22 -1 -34 -21 -13 -21 6 0 10 -4
10 -10 0 -5 -9 -10 -19 -10 -14 0 -18 -5 -14 -20 4 -16 0 -20 -18 -20 -46 1
-174 78 -157 95 3 3 28 -5 55 -18 78 -39 104 -41 34 -3 -36 20 -70 41 -75 47
-16 16 62 6 149 -20z m488 -85 c17 -13 14 -16 -35 -38 -29 -14 -78 -45 -108
-69 -108 -86 -157 -116 -157 -94 0 7 6 11 14 8 9 -4 11 0 6 13 -5 13 -3 15 8
9 11 -7 12 -6 2 6 -10 13 -2 26 50 77 89 88 175 122 220 88z m-2308 -116 c-3
-5 -2 -10 4 -10 5 0 13 5 16 10 13 21 25 -2 19 -38 -7 -43 -11 -52 -25 -52 -6
0 -6 8 1 20 12 22 10 23 -14 14 -9 -3 -13 -10 -10 -15 3 -5 0 -9 -5 -9 -6 0
-11 -5 -11 -11 0 -5 4 -8 8 -5 5 3 18 -1 29 -9 14 -10 19 -22 16 -40 -7 -31
-8 -31 -39 3 -14 15 -22 21 -19 13 4 -7 1 -17 -6 -22 -10 -6 -7 -9 11 -9 18 0
21 -3 11 -9 -11 -7 -10 -11 5 -19 10 -6 15 -14 11 -18 -4 -4 -13 1 -20 10 -11
15 -17 16 -34 7 -16 -8 -23 -8 -27 2 -3 6 -4 3 -3 -8 1 -12 -3 -19 -11 -17
-10 2 -10 -2 -2 -17 12 -24 13 -34 1 -27 -5 3 -11 -3 -14 -14 -3 -13 -10 -18
-21 -14 -9 3 -16 1 -16 -5 0 -6 5 -11 10 -11 6 0 10 -5 10 -12 0 -6 -3 -8 -7
-5 -3 4 -12 2 -18 -3 -9 -7 -15 -6 -22 2 -16 21 4 77 32 90 14 6 25 18 25 26
0 12 -4 11 -21 -4 -17 -16 -22 -16 -31 -4 -8 12 -9 12 -4 -2 3 -10 1 -18 -4
-18 -17 0 -11 25 10 48 12 12 16 22 10 22 -7 0 -7 6 0 21 11 20 12 20 26 2 14
-17 14 -17 5 4 -19 39 -14 63 14 63 14 0 30 9 37 20 7 11 16 20 21 20 4 0 5
-4 2 -10 -3 -6 1 -7 9 -4 9 3 13 11 9 17 -4 6 0 8 11 4 14 -6 15 -3 6 13 -9
16 -8 20 5 20 9 0 13 -4 10 -10z m2644 -199 c8 -5 -4 -7 -33 -4 -31 4 -46 2
-46 -6 0 -6 10 -11 23 -11 12 -1 -14 -13 -58 -29 -109 -38 -194 -83 -230 -122
l-30 -33 35 26 c158 115 359 149 495 83 33 -16 62 -33 63 -38 2 -4 10 -3 18 4
11 9 17 9 28 0 10 -9 15 -8 19 3 8 20 51 44 45 25 -4 -13 50 -49 74 -49 6 0
19 7 29 16 11 10 23 13 33 7 22 -12 4 -35 -30 -37 -16 -1 -35 -5 -43 -10 -10
-6 -16 -6 -18 1 -3 8 -14 8 -34 3 -23 -7 -31 -5 -36 6 -3 7 -13 14 -22 14 -10
0 -2 -12 24 -35 44 -38 51 -41 58 -22 8 17 28 -13 22 -32 -3 -8 2 -26 12 -40
10 -14 22 -35 28 -45 5 -11 24 -23 42 -28 18 -5 35 -14 39 -20 11 -17 6 -71
-7 -79 -8 -5 -7 -17 1 -41 l13 -35 106 -1 c70 -1 101 1 91 8 -20 13 -4 26 41
33 48 7 66 -4 43 -27 -19 -20 -11 -30 35 -43 48 -12 114 -67 152 -125 53 -82
73 -174 60 -276 -12 -93 -19 -115 -37 -108 -9 3 -15 -7 -20 -32 -7 -38 -44
-135 -50 -129 -2 1 3 25 11 52 16 52 20 216 5 180 -5 -11 -9 -35 -9 -54 -2
-62 -33 -165 -67 -218 -19 -29 -36 -53 -38 -53 -2 0 7 26 20 58 13 32 26 85
28 118 3 32 3 48 0 34 -9 -46 -28 -85 -54 -111 -41 -43 -51 -59 -45 -69 3 -6
2 -10 -3 -10 -6 0 -12 -10 -16 -23 -3 -13 -21 -43 -39 -68 -19 -24 -36 -49
-38 -56 -2 -6 -26 -37 -54 -69 -27 -31 -54 -66 -60 -77 -5 -11 -16 -22 -23
-23 -7 -1 -8 0 -3 2 5 3 19 24 30 48 12 23 29 51 40 62 10 11 22 30 25 42 l7
21 -43 -21 c-24 -11 -59 -34 -78 -49 -50 -42 -58 -36 -13 9 49 47 107 123 78
102 -11 -8 -29 -22 -40 -31 -68 -57 -67 -40 2 27 73 71 193 229 193 255 0 6
-22 -17 -50 -50 -65 -78 -168 -166 -251 -214 -36 -21 -90 -60 -120 -87 -52
-46 -79 -59 -47 -23 35 41 24 39 -64 -10 -51 -29 -118 -65 -149 -81 -31 -15
-87 -56 -125 -89 -73 -65 -71 -59 12 38 59 70 84 106 84 120 0 5 -26 -17 -56
-50 -42 -45 -49 -50 -28 -20 31 44 125 156 188 223 46 48 42 53 -13 18 -84
-54 -181 -152 -276 -280 -32 -44 6 27 43 79 82 116 174 213 248 260 62 40 89
65 70 65 -16 0 -184 -89 -178 -94 3 -4 -1 -4 -9 -1 -9 3 -38 -4 -65 -15 -68
-30 -44 -10 53 41 135 73 170 101 183 151 30 114 50 145 198 297 62 65 84 120
61 158 -12 20 -113 73 -141 73 -10 0 -27 -59 -34 -115 -6 -56 -45 -151 -83
-205 -46 -66 -157 -166 -217 -195 -32 -17 -61 -33 -64 -36 -3 -3 -112 -9 -242
-12 -130 -3 -241 -8 -247 -11 -16 -10 7 -58 41 -86 86 -70 95 -83 113 -165 16
-72 32 -112 41 -102 2 2 -3 35 -11 73 -17 80 -19 140 -6 149 12 7 47 -69 56
-124 4 -22 11 -41 16 -41 5 0 8 -3 7 -7 -6 -21 14 -83 24 -77 6 4 8 3 5 -3 -4
-6 -4 -26 0 -44 7 -33 7 -33 14 -9 7 21 8 20 6 -10 -2 -26 -7 -36 -22 -38 -11
-2 -42 -19 -70 -37 -38 -25 -75 -39 -151 -54 -141 -29 -174 -42 -155 -65 7 -8
-3 -12 -32 -14 -65 -4 -71 -8 -91 -64 -10 -29 -23 -59 -28 -65 -16 -20 -42
-15 -68 12 -18 19 -26 22 -37 14 -17 -15 -16 -24 1 -42 8 -8 16 -23 18 -33 2
-15 -4 -20 -34 -22 -20 -2 -53 4 -73 12 -46 20 -45 20 -45 0 0 -32 -44 -94
-67 -94 -17 0 -21 4 -16 17 5 12 2 15 -10 10 -10 -4 -17 -2 -17 5 0 9 43 73
59 88 4 3 6 11 7 18 1 6 2 16 3 22 0 5 26 28 56 50 31 23 64 58 75 79 21 43
38 51 185 91 96 26 187 73 221 112 19 23 24 41 24 81 -1 63 -18 96 -93 178
-64 70 -132 195 -142 262 -8 50 8 119 36 159 34 46 35 83 5 123 -15 19 -32 35
-39 34 -9 0 -9 -2 1 -6 6 -2 12 -9 12 -15 0 -7 -28 -8 -82 -3 -82 7 -92 11
-265 92 -66 30 -153 123 -153 162 0 15 -10 38 -21 50 l-22 23 24 -7 c13 -4 53
-22 89 -40 71 -35 169 -70 176 -62 3 2 -21 15 -53 27 -32 13 -106 48 -165 79
l-108 56 1 50 c2 48 2 48 9 15 7 -31 7 -32 9 -7 0 15 3 27 6 27 12 0 55 -24
55 -32 0 -4 8 -8 18 -8 26 0 203 -61 302 -105 47 -21 112 -47 145 -60 58 -21
61 -24 95 -93 19 -39 38 -74 41 -77 5 -4 58 15 87 31 2 1 -2 20 -9 42 -11 38
-9 49 26 149 20 59 44 120 51 135 8 15 14 31 14 35 -1 15 -38 -62 -75 -157
-20 -52 -38 -96 -40 -98 -1 -1 -13 22 -25 53 l-23 56 23 77 c46 154 146 298
250 359 75 44 206 82 285 82 39 1 76 -3 84 -8z m-1495 -77 c19 -7 21 -24 3
-24 -14 0 -5 -99 32 -348 12 -79 19 -151 16 -162 -3 -10 1 -45 10 -78 18 -73
19 -105 3 -100 -8 3 -16 32 -21 69 -10 89 -36 234 -53 294 -13 46 -38 179 -51
268 -5 33 -3 39 15 44 28 7 18 23 -14 23 -13 0 -24 5 -24 10 0 11 59 14 84 4z
m-450 -573 c4 -5 -2 -29 -13 -53 -19 -44 -144 -304 -182 -381 -28 -56 -13 -39
51 58 63 95 100 141 100 124 0 -6 -22 -41 -48 -78 -27 -36 -63 -86 -79 -111
l-31 -45 24 -18 23 -17 -88 -88 c-84 -83 -152 -142 -166 -142 -4 0 -5 10 -3
23 2 15 9 21 21 19 10 -2 17 3 17 13 0 8 7 15 15 15 8 0 15 7 15 15 0 8 6 15
14 15 8 0 16 7 20 15 3 8 12 15 21 15 8 0 15 6 15 14 0 8 7 17 15 20 12 4 13
10 6 25 -6 10 -7 21 -4 25 3 3 1 6 -6 6 -8 0 -11 -7 -7 -15 3 -9 0 -15 -9 -15
-9 0 -15 -10 -15 -25 0 -14 -4 -25 -10 -25 -5 0 -10 5 -10 10 0 21 -20 9 -21
-12 0 -13 -3 -17 -6 -10 -7 18 -23 4 -24 -21 0 -12 -3 -16 -6 -9 -8 19 -23 14
-23 -9 0 -11 -4 -17 -10 -14 -18 11 -11 23 65 101 77 78 89 100 38 67 l-28
-18 23 29 c16 21 22 42 22 77 0 27 4 49 9 49 10 0 21 -35 21 -72 0 -15 4 -29
9 -33 10 -6 18 16 56 155 33 123 51 163 84 188 25 19 50 60 70 115 11 27 25
35 35 18z m-468 -386 c-4 -12 0 -14 22 -9 l27 7 -20 -23 c-11 -12 -35 -29 -54
-37 -24 -10 -31 -17 -21 -23 8 -5 -8 -14 -46 -25 -68 -19 -104 -48 -105 -84
-1 -26 -1 -26 -9 3 -6 17 -5 36 0 47 6 10 7 25 3 35 -5 13 -3 16 10 11 13 -5
17 0 18 21 1 15 1 31 0 35 -1 4 12 13 29 18 16 6 30 15 30 20 0 5 7 9 16 9 8
0 12 -5 8 -11 -4 -8 0 -8 15 0 12 7 25 10 29 8 4 -3 16 -1 27 4 28 11 28 11
21 -6z m395 -380 c31 -13 32 -14 9 -15 -24 -1 -24 -2 8 -18 18 -10 30 -21 26
-24 -3 -4 10 -3 30 3 20 6 41 7 47 3 6 -4 15 0 20 7 7 11 11 10 24 -6 12 -16
14 -17 9 -2 -6 16 0 17 52 13 33 -2 67 -5 77 -5 11 -1 15 -6 11 -13 -4 -6 -3
-9 2 -5 5 3 18 -1 28 -9 17 -12 13 -13 -30 -8 -30 4 -78 -1 -124 -11 -97 -22
-99 -22 -158 15 -46 28 -55 30 -89 21 -21 -6 -46 -20 -55 -31 -18 -21 -55 -29
-42 -9 4 8 0 8 -15 0 -11 -7 -21 -16 -21 -21 0 -5 -7 -16 -16 -24 -9 -9 -11
-16 -4 -16 6 0 8 -5 4 -11 -10 -18 -22 8 -16 37 2 14 19 41 37 60 33 35 59 45
49 19 -4 -10 0 -15 12 -14 11 0 14 3 8 5 -34 14 23 66 77 73 4 1 22 -6 40 -14z
m-548 -417 c-3 -36 2 -72 16 -113 12 -33 18 -49 16 -35 -3 14 -8 54 -10 90 -6
71 -6 72 46 -57 19 -45 36 -79 38 -77 3 3 13 -10 23 -28 25 -48 24 -7 -3 62
-21 55 -25 108 -10 123 4 4 20 -7 34 -26 19 -25 33 -34 56 -34 26 0 29 3 20
20 -8 15 -6 24 10 41 12 12 18 26 14 29 -3 4 -1 7 5 7 6 0 14 -5 17 -10 4 -6
11 -7 17 -4 7 4 8 2 4 -4 -4 -6 -13 -9 -20 -6 -8 3 -17 0 -22 -7 -4 -7 -3 -10
4 -5 6 3 23 1 39 -5 27 -10 27 -11 8 -22 -11 -6 -28 -13 -39 -14 -16 -3 -17
-1 -5 14 13 16 12 17 -3 5 -11 -9 -18 -9 -21 -2 -3 6 -4 5 -3 -2 1 -7 13 -18
27 -25 19 -10 25 -10 32 2 12 22 30 19 18 -3 -6 -11 -6 -24 0 -33 5 -7 9 -10
9 -6 0 5 5 5 10 2 8 -5 8 -11 0 -20 -8 -9 -5 -14 10 -18 15 -4 19 -13 18 -43
-1 -34 -3 -36 -11 -16 -13 29 -30 28 -22 0 7 -22 7 -22 -8 -3 -14 18 -18 18
-41 5 -15 -8 -22 -16 -16 -20 6 -4 8 -14 5 -22 -5 -11 1 -18 17 -23 13 -4 44
-28 71 -53 26 -26 47 -41 47 -34 0 20 27 14 47 -10 32 -40 116 -98 157 -109
23 -7 64 -20 91 -30 l50 -18 -54 6 c-40 5 -52 3 -47 -5 9 -15 -4 -15 -41 -2
-27 10 -27 9 -8 -6 19 -16 19 -16 -15 -10 -33 5 -34 5 -15 -10 19 -16 19 -16
-5 -9 -14 4 -37 14 -52 21 -33 17 -41 18 -31 2 4 -7 -5 -5 -20 5 -41 27 -44
20 -7 -18 39 -40 25 -46 -32 -15 -33 17 -36 18 -31 3 5 -13 -4 -11 -41 10 -27
15 -43 20 -36 12 20 -24 3 -30 -26 -9 -15 11 -34 24 -43 29 -18 11 -58 53 -83
87 -17 23 -17 23 -8 -12 16 -57 11 -58 -20 -3 -16 28 -35 55 -41 59 -8 4 -9 3
-5 -4 4 -7 3 -12 -3 -12 -5 0 -11 4 -13 10 -8 25 -123 158 -129 149 -21 -34
-27 157 -7 223 11 38 49 88 66 88 5 0 7 -24 5 -52z"/>
<path d="M3978 5996 c-37 -13 -111 -46 -163 -72 -52 -27 -104 -53 -115 -59
-11 -5 -20 -13 -20 -17 0 -4 -21 -16 -47 -28 -62 -27 -116 -69 -109 -85 2 -7
2 -16 -2 -19 -3 -4 -7 -14 -8 -24 -3 -14 5 -17 44 -17 26 1 50 -1 54 -2 12 -6
-3 -33 -18 -33 -8 0 -14 -4 -14 -9 0 -5 -17 -17 -37 -26 -21 -10 -48 -27 -60
-38 -26 -23 -32 -60 -8 -51 23 9 18 -12 -7 -29 -13 -8 -19 -19 -15 -23 4 -5
12 -3 16 4 6 10 12 6 25 -12 15 -24 15 -27 -3 -45 -10 -10 -25 -21 -32 -25 -8
-3 4 -4 26 -1 28 4 36 3 26 -4 -12 -8 -10 -11 11 -16 17 -5 35 -1 49 8 12 9
27 13 34 11 7 -3 15 2 18 10 5 11 20 16 52 16 25 0 45 -3 45 -7 0 -16 -16 -30
-40 -36 -14 -3 -41 -20 -60 -37 -18 -16 -38 -30 -43 -30 -9 0 -124 -68 -143
-85 -33 -28 -52 -42 -67 -48 -9 -3 -17 -16 -17 -27 0 -13 4 -18 11 -15 6 4 9
0 7 -11 -2 -16 3 -19 32 -19 26 0 35 -4 34 -16 -1 -16 17 -18 49 -4 11 4 23 3
30 -4 6 -6 28 -11 48 -11 21 0 42 -7 50 -16 16 -19 69 -47 69 -36 0 4 18 8 39
9 34 2 40 -2 44 -20 l4 -22 8 23 c4 12 15 22 24 22 9 0 22 5 29 12 9 9 12 6
12 -15 0 -23 4 -27 28 -28 l27 -1 -27 -10 c-16 -5 -28 -16 -28 -24 0 -8 -3
-14 -6 -14 -11 0 -33 28 -27 34 4 3 -2 6 -13 6 -16 0 -16 -3 7 -25 24 -25 27
-25 55 -10 35 18 61 19 67 3 3 -10 7 -10 19 0 9 7 23 9 33 6 10 -4 21 -1 27 7
7 10 8 8 3 -7 -5 -21 14 -33 53 -34 9 0 12 117 12 550 0 433 -3 550 -12 550
-7 0 -43 -11 -80 -24z"/>
<path d="M2526 5815 c-20 -14 -41 -25 -45 -25 -17 0 -146 -73 -180 -101 -78
-66 -87 -78 -105 -133 -5 -14 -10 -16 -18 -8 -6 6 -17 7 -27 3 -106 -52 -123
-74 -61 -77 24 -1 43 6 63 22 16 13 33 24 38 24 6 0 21 11 35 25 14 14 45 31
70 37 24 7 44 16 44 20 0 4 9 8 20 8 11 0 19 6 17 12 -1 7 8 14 20 16 12 2 25
12 28 23 4 10 13 19 21 19 8 0 13 4 12 8 -2 4 26 36 61 71 40 39 60 66 54 72
-6 6 -23 0 -47 -16z"/>
<path d="M1798 5356 c-43 -7 -59 -14 -69 -33 -9 -17 -15 -20 -20 -11 -6 9 -11
2 -15 -19 -4 -18 -10 -30 -15 -27 -5 3 -9 -19 -9 -49 0 -35 -5 -59 -14 -66 -8
-7 -14 -21 -13 -32 2 -22 34 -36 50 -20 14 14 30 14 22 1 -5 -9 24 -15 48 -11
5 1 6 -3 2 -9 -3 -6 -11 -8 -16 -5 -20 13 -7 -13 18 -36 15 -13 22 -17 15 -8
-9 12 -9 24 -2 46 6 17 10 36 8 43 -2 7 3 15 10 17 6 3 12 -1 12 -9 0 -10 3
-9 10 2 9 13 10 13 10 0 0 -13 1 -13 10 0 8 13 10 13 10 -1 0 -10 11 -20 25
-23 14 -4 25 -10 25 -15 0 -5 9 -7 20 -4 14 4 20 0 20 -12 0 -12 7 -16 24 -13
16 2 31 -6 45 -22 19 -23 22 -23 31 -8 7 10 17 15 27 11 11 -4 14 -3 9 5 -4 7
-2 12 4 12 6 0 5 11 -5 30 -19 37 -14 38 21 5 17 -15 34 -23 45 -20 9 3 20 1
24 -5 4 -7 19 -9 38 -4 44 9 52 15 33 26 -9 5 -21 6 -26 3 -16 -10 -41 20 -28
33 15 15 7 22 -28 25 -31 2 -55 17 -47 30 3 4 -5 16 -16 26 -12 10 -21 26 -21
35 0 9 -9 21 -19 28 -10 6 -17 16 -15 22 8 20 -62 57 -114 60 -28 2 -54 6 -59
8 -4 2 -33 0 -65 -6z"/>
</g>
</svg>
